<?xml version="1.0" encoding="utf-8"?>
<!-- Generator: Adobe Illustrator 19.0.0, SVG Export Plug-In . SVG Version: 6.00 Build 0)  -->
<svg version="1.1" id="Calque_1" xmlns="http://www.w3.org/2000/svg" xmlns:xlink="http://www.w3.org/1999/xlink" x="0px" y="0px"
	 viewBox="0 0 56.7 56.7" style="enable-background:new 0 0 56.7 56.7;" xml:space="preserve">
<style type="text/css">
	.st0{fill:none;stroke:#000000;stroke-width:3;stroke-linecap:round;stroke-linejoin:round;}
	.st1{fill:none;stroke:#000000;stroke-linecap:round;stroke-linejoin:round;}
	.st2{stroke:#000000;stroke-linecap:round;stroke-linejoin:round;}
	.st3{fill:#FFFFFF;}
</style>
<path id="XMLID_1_" class="st0" d="M26.1,51.1c0-8.2,5.6-14.9,12.5-14.9"/>
<path id="XMLID_223_" class="st0" d="M53.5,51.1c0-8.3-6.7-15-15-15"/>
<circle id="XMLID_224_" class="st0" cx="39.7" cy="26.6" r="8.8"/>
<path id="XMLID_225_" class="st1" d="M36.5,24.5c0,1.8,1.5,3.3,3.3,3.3"/>
<path id="XMLID_226_" class="st1" d="M43.2,24.4c0,1.9-1.5,3.4-3.4,3.4"/>
<circle id="XMLID_227_" class="st2" cx="39.8" cy="24.4" r="1.7"/>
<ellipse id="XMLID_228_" class="st3" cx="39.8" cy="24.4" rx="1.7" ry="0"/>
<circle id="XMLID_229_" class="st3" cx="39.1" cy="15.4" r="0.9"/>
<circle id="XMLID_230_" class="st3" cx="38.9" cy="22.9" r="1.7"/>
<path id="XMLID_10_" class="st0" d="M3.3,38.2c0-8.2,5.6-14.9,12.5-14.9"/>
<path id="XMLID_9_" class="st0" d="M30.7,38.2c0-8.3-6.7-15-15-15"/>
<circle id="XMLID_8_" class="st0" cx="16.9" cy="13.7" r="8.8"/>
<path id="XMLID_7_" class="st1" d="M13.7,11.6c0,1.8,1.5,3.3,3.3,3.3"/>
<path id="XMLID_6_" class="st1" d="M20.4,11.5c0,1.9-1.5,3.4-3.4,3.4"/>
<circle id="XMLID_5_" class="st2" cx="17" cy="11.5" r="1.7"/>
<ellipse id="XMLID_4_" class="st3" cx="17" cy="11.5" rx="1.7" ry="0"/>
<circle id="XMLID_3_" class="st3" cx="16.3" cy="2.5" r="0.9"/>
<circle id="XMLID_2_" class="st3" cx="16.1" cy="10" r="1.7"/>
</svg>
