<?xml version="1.0" encoding="utf-8"?>
<!-- Generator: Adobe Illustrator 19.0.0, SVG Export Plug-In . SVG Version: 6.00 Build 0)  -->
<svg version="1.1" id="Calque_2" xmlns="http://www.w3.org/2000/svg" xmlns:xlink="http://www.w3.org/1999/xlink" x="0px" y="0px"
	 viewBox="0 0 56.7 56.7" style="enable-background:new 0 0 56.7 56.7;" xml:space="preserve">
<style type="text/css">
	.st0{fill:none;stroke:#000000;stroke-width:3;stroke-linecap:round;stroke-linejoin:round;}
	.st1{fill:none;stroke:#000000;stroke-linecap:round;stroke-linejoin:round;}
</style>
<line id="XMLID_1_" class="st0" x1="10.5" y1="19.5" x2="27.5" y2="48.9"/>
<line id="XMLID_223_" class="st0" x1="27.5" y1="48.9" x2="44.5" y2="19.5"/>
<line id="XMLID_224_" class="st0" x1="44.5" y1="19.5" x2="27.5" y2="29.3"/>
<line id="XMLID_225_" class="st0" x1="27.5" y1="29.3" x2="10.5" y2="19.5"/>
<line id="XMLID_226_" class="st0" x1="10.5" y1="19.5" x2="27.5" y2="9.7"/>
<line id="XMLID_227_" class="st0" x1="27.5" y1="9.7" x2="44.5" y2="19.5"/>
<line id="XMLID_228_" class="st0" x1="27.5" y1="29.3" x2="27.5" y2="47.7"/>
<line id="XMLID_229_" class="st1" x1="26.1" y1="30.1" x2="19" y2="34.2"/>
<line id="XMLID_230_" class="st1" x1="28.9" y1="30.1" x2="36" y2="34.2"/>
<line id="XMLID_231_" class="st1" x1="28.9" y1="34.9" x2="33.9" y2="37.8"/>
<line id="XMLID_232_" class="st1" x1="26.1" y1="34.9" x2="21.1" y2="37.8"/>
<line id="XMLID_233_" class="st1" x1="32.5" y1="28.3" x2="37.9" y2="30.9"/>
<line id="XMLID_234_" class="st1" x1="22.5" y1="28.3" x2="17.1" y2="30.9"/>
<line id="XMLID_235_" class="st1" x1="26.1" y1="38.5" x2="22.5" y2="40.3"/>
<line id="XMLID_236_" class="st1" x1="28.9" y1="38.5" x2="31.4" y2="40.3"/>
<line id="XMLID_237_" class="st1" x1="19" y1="26.2" x2="17.1" y2="27.1"/>
<line id="XMLID_238_" class="st1" x1="36" y1="26.2" x2="39.4" y2="28.3"/>
<line id="XMLID_239_" class="st1" x1="19" y1="26.2" x2="26.1" y2="38.5"/>
<line id="XMLID_240_" class="st1" x1="28.9" y1="38.5" x2="36" y2="26.2"/>
<line id="XMLID_241_" class="st0" x1="27.5" y1="9.7" x2="27.5" y2="29.3"/>
</svg>
